<svg width="34" height="34" viewBox="0 0 34 34" fill="none" xmlns="http://www.w3.org/2000/svg">
<path d="M23.9833 0.333344H10.0166C3.94992 0.333344 0.333252 3.95001 0.333252 10.0167V23.9667C0.333252 30.05 3.94992 33.6667 10.0166 33.6667H23.9666C30.0333 33.6667 33.6499 30.05 33.6499 23.9833V10.0167C33.6666 3.95001 30.0499 0.333344 23.9833 0.333344ZM16.1666 25.75C16.1666 26.35 15.5666 26.75 15.0166 26.5167C12.9999 25.65 10.3666 24.85 8.53325 24.6167L8.21659 24.5833C7.19992 24.45 6.36658 23.5 6.36658 22.4667V9.63334C6.36658 8.35001 7.39992 7.40001 8.66658 7.50001C10.7499 7.66668 13.8333 8.66668 15.7666 9.76668C16.0333 9.91668 16.1666 10.2 16.1666 10.4833V25.75ZM27.6332 22.45C27.6332 23.4833 26.7999 24.4333 25.7833 24.5667L25.4333 24.6C23.6166 24.85 20.9999 25.6333 18.9833 26.4833C18.4333 26.7167 17.8333 26.3167 17.8333 25.7167V10.4667C17.8333 10.1667 17.9833 9.88334 18.2499 9.73334C20.1833 8.65001 23.1999 7.68334 25.2499 7.50001H25.3166C26.5999 7.50001 27.6332 8.53334 27.6332 9.81668V22.45Z" fill="#546FFF"/>
</svg>
